<?xml version="1.0" encoding="UTF-8" standalone="no"?>
<!-- Created with Inkscape (http://www.inkscape.org/) -->

<svg
   width="1122.5197"
   height="793.70081"
   viewBox="0 0 296.99999 210"
   version="1.1"
   id="svg38723"
   xml:space="preserve"
   xmlns="http://www.w3.org/2000/svg"
   xmlns:svg="http://www.w3.org/2000/svg"><defs
     id="defs38720" /><g
     id="layer1"><circle
       id="path50484"
       style="fill:#000000;stroke:#000000;stroke-width:0.264583"
       cx="247.79384"
       cy="146.33495"
       r="0" /><circle
       id="path50496"
       style="fill:#000000;stroke:#000000;stroke-width:0.264583"
       cx="169.26074"
       cy="81.947563"
       r="0" /><circle
       id="path51266"
       style="fill:#000000;stroke:#000000;stroke-width:0.264583"
       cx="243.79486"
       cy="98.199265"
       r="0" /><circle
       id="path51516"
       style="fill:#000000;stroke:#000000;stroke-width:0.264583"
       cx="245.19226"
       cy="69.567848"
       r="0" /><path
       id="path51546"
       style="fill:#000000;fill-opacity:0.99;stroke:#000000;stroke-width:0"
       d="m 210.73449,184.11713 c -8.86703,-5.92021 -19.75137,-6.31497 -29.61561,-10.20439 -11.19668,-2.43783 -21.94781,-6.60868 -33.40417,-7.71803 -10.18759,-3.02032 -20.3442,-1.98593 -30.78487,-1.27626 -10.91681,3.20122 -18.883468,-3.88705 -28.65003,-4.89187 -11.169964,-1.42537 -22.368705,-0.84877 -33.519041,-1.9937 -7.456418,-5.08207 -15.253901,-7.80993 -24.342184,-3.64822 -6.026447,-7.0748 -2.826629,-20.06243 3.563299,-26.23649 3.402299,-8.0052 8.452784,-15.77601 14.910639,-22.30745 6.029124,-9.05999 14.479534,-18.831624 26.446194,-18.245464 12.81775,-1.061407 25.538793,-3.961608 37.578323,-8.173288 10.56011,0.82659 21.11878,2.086975 31.70295,1.979451 7.09615,-1.693074 17.03441,-1.784771 21.8448,2.719091 2.23066,8.494604 1.94476,21.82494 13.67338,22.59763 7.49705,1.18332 16.47401,11.03456 22.86288,9.24637 -0.85249,-0.35295 8.52675,0.85468 9.59854,-4.42458 -8.46392,7.27516 -18.73039,1.14048 -26.32549,-4.20569 -7.15872,-3.19494 -16.69965,-4.79304 -16.53905,-15.593524 -4.1824,-10.343631 0.36969,-20.280944 -1.83785,-30.792417 0.80739,-2.922143 -4.33183,-16.848507 -2.31916,-13.447701 2.72912,10.14694 -1.12714,-6.732347 -3.24887,-9.567365 -0.2802,-9.99005 12.54525,6.784977 17.28492,8.040798 7.85637,7.306919 17.86115,4.291706 27.14404,3.055435 6.12562,2.607334 11.81577,-0.843709 17.63897,-0.326088 6.87596,-4.658847 13.08449,-18.186305 20.93181,-16.549749 1.84352,10.391783 -2.4684,20.383103 -2.95612,30.664169 0.17661,5.290896 5.48504,12.128089 0.69246,18.893191 5.19981,6.051114 -0.6893,10.641891 -1.40648,16.369398 5.76056,3.583253 6.78904,9.775823 5.30131,16.002983 -0.17205,9.82117 -7.87838,21.60593 0.70804,29.94428 0.66857,4.42267 10.58634,11.10049 17.62604,8.91306 9.34212,-4.52445 12.54366,11.34171 7.10017,15.35101 -8.6368,5.8287 -18.47824,-0.63445 -27.32294,-1.99495 -8.87624,-2.40396 -17.17057,-9.79212 -26.59045,-6.18366 0.72001,6.70649 20.64037,5.23247 17.31338,16.54003 -3.39484,10.29298 -16.49955,7.48102 -25.05983,7.46399 z m 6.48943,-75.39842 c 4.22836,-6.26931 16.80696,-7.45644 19.26288,-10.694142 -8.68469,1.700048 -18.19402,5.723802 -22.69996,13.318812 1.16772,-0.84713 2.22017,-1.84278 3.43708,-2.62467 z m -14.90767,-6.71266 c 11.08991,-7.155389 -5.03555,-4.265872 -5.75579,-5.664939 5.10411,-0.05964 12.21408,-0.507714 3.06631,0.487477 -9.08839,-2.614711 -3.0778,6.997772 1.17827,5.604082 0.672,-6.170738 7.60295,-6.333906 1.12218,-0.96676 -4.60208,8.70172 -10.64083,-11.163789 -9.09212,-2.412655 1.85149,2.319055 7.86296,8.486535 9.48115,2.952795 z M 190.99858,85.764406 c 8.66916,-9.836229 -11.77793,-16.317902 -14.56954,-6.84372 4.14346,3.234465 6.33097,10.666102 14.56954,6.84372 z m 26.72285,-1.427914 c 13.74092,-4.981165 -5.18412,-19.784279 -9.00615,-6.877375 -2.81484,5.882618 4.35515,9.140875 9.00615,6.877375 z m -5.18019,100.101678 c -7.93971,-3.24272 -15.98806,-6.24186 -24.56589,-8.20987 -10.6982,-3.21601 -21.5894,-5.9934 -32.39695,-8.74209 -8.59653,-0.55045 -17.32489,-3.956 -25.57659,-3.29163 -10.74257,0.22616 -22.12607,3.24674 -32.45839,-0.74285 -5.203147,-6.86072 -16.466616,-1.29037 -23.97204,-4.69505 -10.219368,0.44323 -21.623086,1.48161 -29.300903,-6.58606 -7.480533,0.40751 -19.621988,6.99781 -17.234008,-6.98935 0.01679,-9.79194 5.963298,-16.09189 10.290934,-22.98771 3.636698,-10.27273 12.972695,-17.63959 19.418339,-26.281047 6.230559,-8.835798 17.610249,-8.43751 27.282188,-9.377365 9.463338,-1.954975 19.17493,-3.169777 27.8096,-7.418655 10.4943,1.166847 21.00875,1.658866 31.41729,2.422991 5.82592,-2.718364 11.46064,-0.943975 17.04966,-0.113319 11.08929,-1.795851 5.67692,14.733133 11.14977,20.564715 7.50073,5.14566 16.43437,6.03185 23.91226,12.38325 5.18141,2.81209 15.09729,2.41779 17.30318,-2.76472 -8.73346,7.96244 -19.44008,0.55723 -27.39152,-4.54618 -6.28033,-2.87619 -15.44864,-3.8536 -15.52411,-14.128714 -3.92638,-9.518245 -0.4583,-18.468673 -1.65262,-27.886413 1.231,-10.700359 -6.33207,-22.753886 -5.37455,-31.157548 7.10256,2.585133 12.16161,9.646373 18.76727,13.356662 8.34837,6.565429 17.67494,1.431221 27.03827,1.773018 4.64051,3.393207 11.86055,-3.016264 14.93342,0.407947 7.50355,-5.800979 12.02218,-15.582624 21.17288,-18.781455 4.15623,9.652643 -1.88852,20.370231 -1.79156,30.383104 -2.35978,6.486435 6.48694,12.210584 0.4293,19.940113 2.2178,5.679549 2.66446,10.452248 -1.83968,15.423515 6.85908,6.174871 6.88423,15.648121 5.00789,24.680191 -3.05046,7.78808 -4.98944,17.89967 2.3354,24.02746 -2.27711,2.83454 9.08209,7.29299 13.30114,8.51634 9.75074,-6.86369 15.0499,5.8065 12.63142,12.05439 -4.91908,8.33027 -18.11443,5.05035 -25.72536,1.2507 -9.05574,0.5304 -16.67283,-8.72146 -25.17537,-7.36681 -7.12797,-1.758 -6.56761,4.51648 0.25365,4.84681 8.84058,1.45694 15.62949,9.47273 9.81863,17.02865 -6.39955,4.02733 -14.1254,3.29792 -21.34295,3.00698 z m 4.6403,-75.93446 c 4.01194,-6.182 18.87778,-8.44311 18.53481,-10.165182 -7.77038,0.515546 -20.14987,8.761442 -20.9354,12.040282 l 1.18304,-1.06493 z m -15.89023,-4.89015 c 3.38362,-4.530058 7.49335,-9.460595 -1.68781,-7.719991 -12.57857,-2.234666 -5.11771,8.746241 1.68781,7.719991 z M 190.88322,85.680634 c 8.61526,-9.478989 -11.64552,-15.812154 -14.4823,-6.69316 4.47075,0.838195 5.44873,11.400057 14.4823,6.69316 z m 25.21067,-1.05495 c 15.30232,-2.700977 -1.27101,-20.542329 -6.97471,-7.764692 -2.95288,4.789413 2.1196,9.492675 6.97471,7.764692 z m -49.68872,-7.411818 c -0.14854,0.935207 0.11752,5.526617 0.36847,3.932312 -0.3875,-1.178634 0.25962,-3.168174 -0.36847,-3.932312 z m 69.06082,93.341344 c 1.83055,2.38396 0.76568,5.6301 0.4198,8.28305 0.87606,-1.10755 0.7532,-3.71632 0.86839,-5.41114 -0.18757,-1.02017 -0.20739,-2.4851 -1.28819,-2.87191 z m 23.90591,0.56581 c -1.53276,-0.58223 -2.60111,-0.22173 0,0 z M 243.61858,65.82648 c 1.1229,1.697175 1.18456,4.599112 2.17873,5.926672 -0.56303,-1.966682 -0.88755,-4.537927 -2.17873,-5.926672 z m -7.59064,-30.216842 c 2.1131,-1.601946 -0.11883,-0.724268 0,0 z M 182.56235,47.69132 c 2.46868,1.042826 2.64523,0.56575 0,0 z m -20.90829,-9.186344 c 0.51586,2.980103 1.30708,1.427681 0,0 z m 4.68712,16.731967 c 0.56717,3.579251 1.40486,2.104445 0,0 z M 74.172386,87.168272 c -2.470849,-0.44278 0.659963,0.05144 0,0 z M 29.500517,154.90827 c 2.759385,0.185 1.38734,-0.0631 -2e-6,2.8e-4 z M 245.05578,69.541839 c 0.0604,0.267406 0.58823,-0.168799 0,0 z m -78.99086,11.729132 c -0.83344,3.978196 3.94941,0.03985 0,0 z M 222.3907,48.302404 c 6.25175,0.580758 -4.70198,-0.792586 0,0 z m 25.79034,98.031836 c 1.69446,3.7496 4.88931,-1.66172 1e-5,-1.1e-4 z m 26.0092,17.91271 c 0.49978,3.75402 4.86291,-1.60791 0,0 z m -37.72414,16.5666 c 3.26053,-5.64703 -6.93012,0.91422 0,0 z M 96.396026,161.88939 c -1.739633,-1.16398 -6.138723,0.46015 -1.832409,0.28551 z M 141.02422,80.131054 c -45.833795,-7.848105 4.14329,0.49367 -4.33442,-0.129757 -2.33786,0.177205 3.87324,0.72989 4.33442,0.129757 z m 46.23105,-32.043465 c -4.90185,-0.488561 -5.31876,1.116513 0,0 z m 57.77641,17.605825 c -3.26185,-1.719239 -4.39748,1.327287 0,0 z m -3.06922,32.532354 c 4.20036,2.665862 0.51821,-1.931144 0,0 z m 1.548,0.394173 c -1.84489,-1.658609 -1.91564,-0.430546 0,0 z M 93.465101,162.61771 c 1.764382,2.36 3.31483,-4.97674 -5e-6,0 z m -30.146572,-2.4948 c 3.595804,1.75024 1.817217,-3.56932 0,0 z M 34.764916,124.54259 c -6.632681,1.91792 0.642641,6.8839 0,0 z M 194.94626,97.662684 c 3.47918,-0.265372 15.36579,-3.101885 6.6279,1.104762 -0.0953,8.796164 -9.29406,-1.324009 -6.3325,-2.861656 -7.39452,2.980118 8.14838,13.36814 8.35607,3.277142 8.06214,-4.053459 -7.69589,-4.34989 -8.65147,-1.520248 z M 220.56601,76.18128 c 2.07486,12.729876 -18.66907,4.522449 -6.72371,-1.870099 5.08306,-1.022458 11.57455,3.384164 4.08124,-1.257435 -10.04353,-4.080266 -13.29804,15.527054 -1.41065,11.377808 3.61423,0.758206 9.25532,-8.069241 4.05312,-8.250274 z m -44.12155,2.742731 c 5.16764,-3.954433 18.72554,-2.062252 12.3371,5.5195 -7.3805,4.495972 -9.69139,-6.925802 -8.60002,-6.090415 -4.71913,3.526023 6.30591,11.627646 11.48607,6.674519 6.1447,-11.24309 -12.18822,-13.382746 -15.22315,-6.103604 z m -10.14264,3.10872 c 3.12677,8.138763 0.75919,21.727989 11.93177,23.912479 9.7921,-0.12086 -9.6437,-1.03902 -7.5625,-9.209941 -2.57133,-4.48238 -0.27452,-11.264754 -4.36927,-14.702538 z m 47.36401,29.233049 c 6.3206,-6.41462 13.35594,-10.52681 22.08296,-12.311604 1.32394,-0.948537 -12.97155,2.215414 -15.28934,6.160944 -2.14432,2.15774 -5.20594,3.52543 -6.79362,6.15066 z m -32.85147,-5.99325 c 8.3149,4.0466 13.80474,11.03978 23.67516,10.8867 5.71942,-0.68687 12.29006,-7.08438 2.80789,-1.70784 -7.97569,4.02243 -15.5111,-4.32732 -22.56705,-7.42855 -1.81887,-0.7466 -2.3186,-2.75864 -3.916,-1.75031 z m -47.97306,61.47281 c 6.81153,1.26723 -0.39292,-6.7402 0,0 z m 1.58302,-0.44876 c 5.01343,0.004 23.13222,4.56008 11.67652,-0.13306 -3.36676,0.64057 -10.5014,-4.59536 -11.67652,0.13306 z m -40.055016,-3.96571 c 9.038706,7.81216 22.059746,2.55353 33.028306,3.95858 7.08711,1.50705 6.513,-2.86156 -0.1352,-1.8416 -9.03206,0.34696 -18.56209,2.6597 -27.424282,0.0475 -3.325937,0.47434 -2.339642,-4.46026 -5.468824,-2.16448 z m -29.597627,-2.05991 c 9.801325,-0.0747 19.480559,3.62869 29.047085,0.95085 -7.255346,-1.10498 -17.607367,-2.06659 -25.959115,-2.24508 -0.747249,0.73609 -3.662796,-0.55884 -3.08797,1.29423 z M 30.209193,155.745 c 10.836815,-4.40548 18.588093,3.42551 29.048636,4.2903 11.66655,-0.44826 -12.416422,-0.51475 -14.438572,-7.60819 -4.544517,0.1782 -11.161657,0.41713 -14.610064,3.31789 z m 3.407024,-29.82389 c -5.217724,7.11026 -8.336605,16.81147 -6.757932,26.14874 6.153348,9.03623 -3.858125,-7.85221 1.210606,-12.84058 -0.477385,-6.45945 4.416121,-7.90458 5.547326,-13.30816 z M 73.411362,85.790409 c -11.317647,1.499886 -18.36671,9.912284 -24.771096,18.622701 -5.687134,6.19857 -10.329875,12.59598 -13.909428,20.09964 4.348932,-9.13443 12.607536,-16.13649 18.148519,-25.140297 5.483577,-6.02856 11.49078,-12.18321 20.386749,-11.943355 l 0.309634,-0.580826 z m 64.387378,-6.592914 c -9.89693,1.764774 -21.99392,-3.839522 -30.39676,0.905571 -4.40989,1.936665 -9.741447,1.825575 -17.772633,4.020148 -4.295389,0.996392 -23.711501,3.462827 -10.240232,2.94228 8.331342,-0.527761 18.303472,-4.057713 24.296825,-4.775617 5.89096,-3.83852 13.35353,-3.682977 22.26463,-2.016252 3.75601,0.183081 8.99393,2.366372 11.84817,-1.07613 z m 28.50885,2.018398 c -4.91592,-0.534109 -17.6148,-2.183768 -26.32489,-1.276609 2.30326,3.899455 14.14533,-3.462806 19.45629,1.484328 2.61605,-2.399879 9.96158,2.65593 6.8686,-0.207719 z M 184.63711,47.99068 c -5.94504,-2.347561 -9.67314,-6.895782 -15.12073,-10.634935 -5.14645,-6.736723 -11.80761,-3.54929 -6.80747,4.016666 4.21612,8.03506 3.42877,17.801317 5.42291,26.140854 -1.12609,5.844829 -2.33856,19.597031 -0.65724,7.602371 2.94677,-7.852055 -1.13638,-16.021518 -1.13037,-24.616412 0.25449,-4.753311 -9.5083,-17.350597 -2.29973,-16.233108 6.03239,1.984388 9.92913,9.030573 15.1879,10.606545 1.09675,2.260925 2.88205,2.797535 5.40473,3.118019 z m 38.15162,0.0684 c -6.87975,-0.604311 -11.20626,3.271805 -17.93128,-0.06412 -6.4164,-0.04088 -12.78249,4.773189 -18.80746,0.411512 7.15229,6.721689 14.85516,-2.221614 22.96486,0.519541 5.38846,3.842779 11.12755,-5.041797 13.47249,0.251447 l 0.30139,-1.118381 z m 20.98138,18.187598 c -2.134,-9.106709 2.66582,-18.577533 2.86752,-27.880659 1.34948,-15.804173 -13.34148,-1.236009 -17.25391,4.810077 -3.85002,2.429529 -8.69685,9.448533 -2.56433,2.400541 5.28535,-3.458189 8.24994,-10.734421 14.4949,-13.458637 9.30988,-4.568968 3.65032,17.808437 1.75725,23.060141 1.60631,3.487359 -2.25553,9.053941 0.69857,11.068537 z m -0.82609,32.49205 c -2.72749,-5.10476 7.92369,-10.665177 0.41486,-16.166825 1.84924,-3.437651 3.30993,-13.84246 1.43768,-14.210789 3.28981,6.777405 -4.91521,13.608185 1.11135,19.408865 1.74695,4.72739 -8.10464,6.69154 -2.96389,10.968749 z m 6.82461,47.584382 c -7.18867,-6.87232 -6.60961,-17.29234 -2.79892,-25.85185 1.89639,-7.06182 1.38817,-19.08183 -3.08695,-21.389653 6.897,6.953013 2.75923,18.110033 1.49309,26.613733 -3.58754,7.51458 -1.28401,14.97857 4.39278,20.62777 z m 9.00032,25.20005 c 11.20714,3.13797 21.71338,-6.75056 15.0367,-17.6164 -6.1341,-5.36149 -15.86013,2.43203 -21.76288,-5.40057 -5.10288,-3.03534 6.81434,5.24658 9.88988,4.97666 8.5502,-5.5913 15.13981,2.3535 13.63192,11.24049 -1.62372,7.66881 -11.76124,5.39738 -16.79562,6.79982 z m -22.80371,7.27378 c 4.42618,-11.19355 -10.04314,-14.64363 -17.70885,-17.58578 5.65983,-2.6541 12.65473,0.99484 17.0954,2.80796 6.19333,4.49522 15.81584,4.93627 22.33577,7.11127 -0.6359,-2.48158 -13.13349,-4.21209 -18.19422,-6.58929 -6.25505,-1.54609 -9.32258,-6.01059 -14.96842,-4.35239 -5.80392,-3.33577 -9.04934,3.8924 -0.74556,3.7357 6.56533,2.78453 15.94517,5.69267 12.18588,14.87253 z m -34.12454,3.34921 c 9.70188,3.93741 21.42119,5.49882 30.65598,0.737 7.40356,-4.91149 -4.04573,2.18241 -6.30406,1.7418 -8.28864,1.33874 -17.86257,-0.43156 -23.97022,-3.76659 l -0.3817,1.28785 z m -53.31074,-13.17098 c 12.10918,0.0269 23.02557,5.29778 34.83538,6.85697 5.32429,1.61686 21.46218,6.53323 19.8047,4.77978 -9.77015,-2.23518 -19.09879,-6.12666 -29.31002,-7.76141 -6.98789,-1.4636 -17.64633,-7.94009 -25.32975,-4.07316 v 5.8e-4 0.19768 z" /></g></svg>
