<?xml version="1.0" encoding="UTF-8" standalone="no"?>
<!-- Created with Inkscape (http://www.inkscape.org/) -->

<svg
   width="1122.5197"
   height="793.70081"
   viewBox="0 0 296.99998 210"
   version="1.1"
   id="svg2814"
   xml:space="preserve"
   sodipodi:docname="cat2.svg"
   inkscape:version="1.2.1 (9c6d41e4, 2022-07-14)"
   xmlns:inkscape="http://www.inkscape.org/namespaces/inkscape"
   xmlns:sodipodi="http://sodipodi.sourceforge.net/DTD/sodipodi-0.dtd"
   xmlns="http://www.w3.org/2000/svg"
   xmlns:svg="http://www.w3.org/2000/svg"><sodipodi:namedview
     id="namedview2816"
     pagecolor="#ffffff"
     bordercolor="#000000"
     borderopacity="0.25"
     inkscape:showpageshadow="2"
     inkscape:pageopacity="0.0"
     inkscape:pagecheckerboard="0"
     inkscape:deskcolor="#d1d1d1"
     inkscape:document-units="mm"
     showgrid="false"
     inkscape:zoom="0.34221534"
     inkscape:cx="258.6091"
     inkscape:cy="563.97238"
     inkscape:window-width="1280"
     inkscape:window-height="772"
     inkscape:window-x="0"
     inkscape:window-y="28"
     inkscape:window-maximized="0"
     inkscape:current-layer="layer1" /><defs
     id="defs2811" /><g
     inkscape:label="Layer 1"
     inkscape:groupmode="layer"
     id="layer1"><path
       id="path25261"
       style="fill:#000000;fill-opacity:0.99;stroke:#000000;stroke-width:0"
       d="m 197.75059,174.07842 c -17.39435,-5.16747 -36.28421,-4.41432 -52.78438,-12.70692 -10.43209,-3.51892 -22.37858,-1.7607 -32.02192,-7.97503 -10.61179,-3.76406 -13.305045,-14.5223 -20.342465,-22.04698 -6.14746,-8.96628 -14.53058,-12.22851 -24.419969,-7.311 -8.109035,0.71017 -23.541194,6.0508 -14.844067,16.17786 -0.747058,10.44012 17.34778,5.82639 12.372537,16.69132 -11.206598,4.2195 -24.075807,-3.30352 -26.040664,-15.52937 -2.483147,-14.1829 -13.74194,5.28028 -21.59127,2.74579 -10.0896278,-9.47435 9.902244,-16.06917 13.542595,-24.17597 8.097244,-7.27608 12.802483,-18.20783 15.091633,-29.389392 2.637641,-9.823666 1.85064,-22.438905 10.149296,-29.572441 8.326366,-7.282216 17.276258,-11.424829 28.269339,-12.313457 11.47065,-4.873445 23.626415,2.550329 31.962505,10.058182 7.27979,7.808952 10.41231,18.442654 18.8346,25.473944 7.90549,7.143172 14.13358,17.797104 24.9102,20.645694 6.61682,0.96243 13.09528,2.67973 19.62777,4.08265 -4.7635,2.67385 -8.87442,14.30187 -2.0963,5.19607 6.97101,-10.83151 0.10446,15.42691 4.83786,7.89337 -2.82019,-6.87497 6.75398,-18.71256 12.25453,-14.3477 2.05595,3.92974 10.76557,11.3208 5.17091,2.50453 -7.02904,-6.03657 9.20306,-0.94445 12.16693,-4.937 6.65612,-4.17621 5.87402,0.6679 4.79567,5.2561 3.02501,-4.00409 16.06406,-16.358182 8.49638,-3.95813 -7.56095,10.42175 3.80181,20.52201 0.6645,31.08953 -5.01626,13.24664 15.2733,9.70231 22.37676,14.45102 8.98696,1.81117 16.63001,6.98098 25.45428,9.17249 5.57421,1.7257 23.03787,2.3394 13.55952,9.9299 -10.31946,1.86507 -20.79892,-1.0788 -31.03735,-2.6634 -10.29234,-4.0693 -21.41898,-3.21803 -32.2205,-4.75294 -10.77737,-2.42801 -21.04915,-8.20451 -32.30801,-8.29962 -6.69871,3.66594 9.61001,7.99702 13.26703,10.09932 12.64158,3.08504 4.18977,12.85874 -8.09795,8.51158 z m 85.97403,-3.79938 c 6.97116,0.57496 -5.78881,-6.22233 -2.4244,0.70706 0.81183,-0.3742 1.56521,-2.95308 2.4244,-0.70706 z m -11.77334,-2.38547 c -3.68163,-6.35041 -10.34714,1.7277 -2.23191,-0.0871 0.35159,0.80446 2.35406,1.78831 2.23191,0.0871 z m -60.1939,-31.48232 c 5.1336,-9.39601 -16.8162,-5.17057 -5.50243,1.2779 1.85137,2.17083 4.43454,0.62445 5.50243,-1.2779 z m 13.9007,-3.73535 c 3.65774,-10.89911 -12.48651,3.12062 -1.39232,1.75994 z m -3.02051,-1.06138 c 0.0858,-1.02304 1.65083,-2.00573 2.14041,-2.28766 0.30818,-0.54651 1.23916,1.91017 0.64137,1.5002 0.17804,0.12874 -4.20608,6.29583 -3.73698,0.25676 -0.21414,0.55791 -1.48373,-2.57778 -0.081,3.4257 2.7244,1.86045 3.66253,-3.84528 4.42659,-3.31767 1.16784,-0.49026 -0.21417,-3.32617 -1.87814,-2.4071 -0.46307,2.01981 -2.26354,-0.0237 -1.51172,2.82917 z m -17.33444,0.85454 c 2.48733,-1.05109 7.30849,1.53492 6.07064,0.91317 -0.27046,3.71487 -4.63524,4.52165 -5.64561,1.34423 -1.16009,-1.46913 -2.72874,-1.20223 1.09934,-2.31081 -1.33629,-2.09888 -5.60364,1.03011 -2.27135,2.92026 -0.52943,-0.81855 4.20947,6.07955 6.4723,1.13153 3.37666,-3.30453 0.63284,-4.48819 -2.28321,-5.23246 -1.22933,0.37361 -4.21222,-1.18503 -3.44211,1.23408 z m 21.2241,-31.89491 c -3.90363,1.94159 -8.11686,5.16132 -9.44728,9.31587 0.68841,0.13439 1.26953,-0.78851 4.61937,-4.46594 0.99998,-2.08918 4.44384,-3.22172 4.82791,-4.84993 z m -31.91678,4.93124 c 2.19579,2.41834 -0.0231,0.16479 1.85662,2.46278 1.62441,1.26669 2.63215,2.68021 3.3818,4.03742 0.54917,-0.067 2.82255,4.17898 2.04657,0.77317 -1.11233,0.29075 -0.69752,-1.81048 -2.10895,-3.0954 -0.98934,-0.50047 -2.47423,-2.66359 -3.48005,-3.32749 -1.37174,1.82609 0.5059,-1.4199 -1.69599,-0.85048 z m -10.12296,1.9798 c -2.37308,2.0152 -6.24675,2.8461 -7.91565,6.05661 -3.50591,3.86444 -1.84275,5.19057 -0.10045,2.34783 1.87007,-3.12144 4.64471,-5.44009 7.53149,-6.84435 1.69437,0.74695 0.42643,-0.96017 0.4846,-1.56009 z m 2.12506,0.23068 c -2.32854,1.26033 -2.08276,2.78101 -4.10232,4.2492 -1.06037,1.11644 -0.3799,4.54398 -1.17581,5.55371 0.75436,0.74211 -0.78506,6.03046 0.8577,4.83539 -0.66868,3.82796 2.56781,-0.44461 -0.77988,-3.15882 2.57987,0.32515 -0.0113,-2.03826 1.53005,-2.27369 0.002,-3.52962 0.49612,-4.04957 2.50405,-6.29598 -0.3203,-0.86867 2.43785,-1.8043 1.16621,-2.90981 z M 69.937542,50.511008 c 4.488268,-0.878359 7.615693,-0.304634 11.347653,-0.901392 5.85423,-1.664273 12.7658,-5.927411 18.4672,-1.64835 4.664105,0.875752 8.266785,3.556855 12.245365,5.880288 1.84119,2.338046 2.91153,1.113114 5.42498,3.841363 1.90198,1.313529 3.83064,6.635432 3.64079,5.079732 1.18512,-1.037056 -2.47526,-3.227051 -3.60175,-5.114576 -2.64512,-2.453482 -3.88463,-2.255589 -6.21365,-4.59885 -4.22873,-2.731064 -8.91779,-4.431504 -13.674615,-6.113161 -4.70352,-2.638977 -10.25595,0.943586 -15.06149,2.05554 -4.27967,1.436558 -7.712162,0.419758 -12.573599,1.484005 v 0.03578 z M 49.611201,72.037506 c 1.021777,-1.501573 2.903062,-5.745095 3.114288,-7.806695 0.459475,-2.069906 6.45818,-4.160436 8.320446,-7.081622 4.741088,-1.251611 6.618258,-6.750778 11.457505,-7.358186 -2.855116,-0.251985 -6.518419,3.935788 -9.382801,5.917861 -3.559046,1.99948 -9.029536,6.484567 -10.443146,8.035971 -0.194117,2.301188 -2.11968,5.188747 -2.560518,7.665939 0.451582,-0.950382 -1.183299,0.638757 -0.505774,0.626732 z M 46.27188,91.070788 c 0.271001,-1.92331 1.92134,-7.213905 1.634769,-8.172597 -1.866717,-3.072918 4.42519,-15.107747 0.429153,-7.464475 -2.002224,5.139006 0.221702,10.499099 -1.889631,12.185629 0.530227,2.259273 -1.346961,3.011133 -0.174291,3.451443 z M 32.009756,118.08256 c -0.854048,-4.74159 3.79491,-1.08541 5.925366,-5.33705 3.671735,-4.04743 3.54493,-10.11843 6.603151,-14.339042 0.676401,-5.33467 1.958109,-10.01718 -0.112118,-2.32825 -1.982162,5.476732 -4.237471,11.150512 -7.269806,16.114392 -2.918927,4.70065 -4.678608,0.84437 -5.14659,5.88995 z m 8.859358,28.435 c -0.416311,-2.60897 -1.485193,-5.04679 -2.581503,-7.79256 -0.825547,-6.91185 -2.643611,0.54466 -8.579805,0.66835 -3.603696,2.31299 -7.573152,7.19354 -12.191786,5.60245 -2.443329,-2.2012 -5.062336,-6.29571 -2.383421,-9.9324 2.514623,-1.99946 3.57996,-4.11144 7.575596,-6.66326 3.616681,-2.63814 6.783709,-4.60152 8.37672,-8.44541 1.779261,-1.56324 0.807636,-2.48536 -0.03277,-0.005 -3.155914,5.64867 -9.940387,8.2967 -14.172022,13.14101 -1.235029,0.22244 -4.811475,6.46521 -1.759424,9.47775 2.639027,6.76397 9.627217,1.54391 13.509015,-1.26664 4.566266,-0.30904 9.264687,-9.35488 8.723987,-3.70799 1.387395,2.97253 2.71169,6.05064 3.515414,8.92407 z m 23.780828,1.70342 c 1.443591,3.74965 3.589958,3.94987 2.421202,5.00526 1.362896,3.10375 -1.90236,5.83959 -5.29745,5.97313 -2.435155,-0.36481 -1.825571,-1.21278 -5.029288,-1.65237 -2.815144,0.0567 -7.461201,-1.06722 -8.699118,-0.59359 -0.457467,-1.76178 -3.611497,-2.19977 -4.293127,-4.85785 -2.758264,-7.13144 -3.538136,-5.09378 -0.08378,0.774 2.191153,2.36078 3.001929,3.63639 4.90188,4.83739 3.707529,0.93135 7.817865,0.89477 11.463965,1.2792 -0.04206,0.41207 6.883328,0.65652 7.315796,-2.78138 1.699356,-3.44453 -0.866651,-3.76781 -7.4e-4,-4.86429 -0.457063,-1.06899 -1.856139,-3.10512 -2.699342,-3.1195 z m 13.658533,-26.34035 c -3.495664,2.52715 -8.637042,1.33521 -12.234472,3.11417 -5.136406,0.57715 -10.29503,2.4153 -14.23746,5.55745 0.883694,0.29035 -0.663628,1.12637 -0.559631,3.84869 -0.653151,0.36721 0.621347,4.4686 2.507098,5.18478 0.919021,2.51935 1.547898,8.49672 5.370781,7.64662 0.59838,2.13407 7.814118,-2.07188 7.600533,2.73961 1.590422,0.80023 -3.619538,-5.63126 -7.029367,-3.24736 -2.151679,0.22614 -2.936649,-1.94844 -4.138321,-3.87607 -1.012573,-3.37162 -3.420805,-4.64882 -3.736771,-8.37138 -0.750111,1.17783 0.380081,-4.50521 0.814475,-4.05772 0.241402,1.0658 3.35303,-1.94991 5.583066,-1.99132 6.284524,-2.423 13.245531,-2.78441 19.496729,-5.10223 1.60648,0.80814 0.49267,-0.87348 0.56334,-1.44524 z m 21.778305,20.90853 c -2.474335,-1.01857 -2.849625,-3.2669 -2.762645,-4.78209 -1.17752,0.15338 -2.16774,-4.96158 -5.44626,-6.89112 -3.13743,-3.85158 -7.70824,-6.30958 -10.85169,-9.94481 -4.48761,1.16848 -1.65242,1.99917 0.27701,1.2128 4.7612,4.25155 10.10223,8.38277 14.26284,13.40205 1.62644,2.08395 0.51192,4.71465 2.74413,6.51252 0.83204,2.59034 1.27205,1.17477 1.776615,0.49065 z m 32.03785,16.60554 c -4.93716,1.21372 -9.12845,-2.30734 -13.91499,-3.11216 -5.05039,-1.88231 -9.46704,-4.67796 -13.92541,-7.47812 -1.20966,-2.84329 -6.511045,-8.67039 -3.98364,-6.6092 -1.990465,0.10972 3.92703,8.16447 7.04638,9.10383 7.08464,5.39686 15.90505,8.84702 24.77816,9.74827 -2.9e-4,-0.55079 5.9e-4,-1.10236 -5e-4,-1.65262 z m 39.57752,10.22911 c -3.30337,-1.05779 -7.05436,-0.72559 -11.32945,-2.32839 -3.69264,-0.4 -8.10363,-2.59371 -11.93126,-4.13376 -4.42585,-1.81029 -8.41685,-3.82367 -13.19728,-3.47582 -1.63642,-1.10051 -6.53823,0.90838 -2.48747,0.8935 0.74501,-6.2e-4 4.8982,-0.031 7.74417,0.72019 7.36883,2.10097 13.98868,6.46133 21.65724,7.58482 2.6088,1.16544 6.57715,0.76398 6.84322,1.19476 1.99301,-0.10897 2.32933,2.63599 2.70083,-0.4553 z m 53.10284,-5.59881 c -5.3217,0.76652 -10.1081,-4.75977 -15.78654,-4.71785 -3.74034,-1.05576 -7.98818,-2.5352 -12.51324,-3.43851 -6.7042,-1.41269 -7.04205,3.66643 -0.84127,4.45819 3.66311,2.12736 9.35705,5.26178 12.0227,5.50577 -0.1413,-1.04109 4.51629,0.5385 4.25968,2.45459 1.95619,4.18708 -1.20566,7.81297 -5.51208,6.94652 -4.71992,0.73429 -10.12743,-1.27975 -14.06198,-2.15459 -4.62343,-0.90903 -7.98372,-2.18352 -12.56286,-2.42803 -2.22956,-0.86278 -13.0133,-0.70519 -5.84988,0.2744 8.92918,0.7619 17.38762,3.43235 26.18054,4.93436 4.27171,-0.27814 10.02676,1.24175 13.07555,-2.63656 0.78227,-3.21199 0.0834,-7.22164 -2.25334,-8.11616 -2.91049,-0.98073 -5.27118,-0.73256 -10.81979,-3.22343 -2.56877,-1.73774 -6.16423,-3.19894 -8.31906,-4.63333 1.50794,-0.24785 8.93613,0.58587 12.60693,2.27755 3.15536,0.35695 8.96678,2.25924 13.19731,3.36626 1.35259,0.60523 8.07317,4.07054 7.17733,1.13082 z m 32.4141,4.73378 c -3.88265,0.10972 -7.40825,-2.56249 -11.34193,-3.13676 -5.85693,-0.27615 -12.25443,0.17667 -17.56889,-0.68104 -0.49595,-0.76633 -4.90961,-1.56063 -2.98879,0.12655 3.30607,1.72138 9.58364,1.54194 14.44297,1.7661 6.09501,-0.5549 12.06209,1.11184 17.45689,3.57963 -1.5e-4,-0.55149 3.1e-4,-1.10302 -2.5e-4,-1.65448 z m 32.77177,-2.41354 c 2.73508,3.31683 3.73313,2.34526 0.72535,-0.48394 l -0.51229,0.34154 -0.21305,0.14202 z m -8.74894,4.16838 c 1.58468,-3.66325 3.07636,-0.98386 2.67203,-1.14068 2.77889,1.91837 0.73273,-0.0557 -0.0412,-1.47064 -1.09405,0.10257 -4.68319,0.87087 -2.63073,2.61132 z m -15.10579,-2.33611 c 0.17138,-4.55108 3.29937,0.2214 4.33816,-0.65647 3.75052,2.23494 -2.85203,-3.89715 -2.74522,-1.13412 0.37454,-2.8976 -3.82849,1.25618 -1.59294,1.79059 z m 3.3283,-8.68326 c 2.4551,-1.62857 4.84507,2.91244 7.78563,1.99323 2.9918,0.81388 6.02535,1.05625 8.76377,2.0421 3.32755,0.54115 4.41852,-0.5031 5.00606,0.74682 0.8945,1.35979 1.03645,1.70219 0.8897,3.88264 1.56668,1.55555 -0.8445,1.9712 -2.27431,2.7381 -1.79793,1.87868 -4.71975,0.28492 -6.72087,1.90994 -1.9256,-0.0568 -6.26735,-0.11048 -5.99277,-0.88157 -2.94147,-1.64865 -7.52145,-0.0681 -11.40113,-1.28907 -4.3048,-0.99496 -4.97137,-0.45161 -7.3521,-1.14679 -1.72657,-1.44894 -2.1379,0.57026 -0.83697,0.47783 3.81195,0.69483 1.67721,0.0464 6.0178,1.22556 3.97475,1.5788 9.86841,0.64242 12.69612,1.54261 1.08678,0.74929 5.4238,1.20527 7.6468,0.50815 1.39187,-0.46787 5.33532,-0.28644 6.58039,-1.74125 3.00349,-1.13895 2.41079,-3.77414 1.92374,-6.09339 -0.68192,0.0403 -1.3348,-3.60111 -3.06155,-1.95807 -1.63856,-0.86299 -6.69108,-0.81852 -10.04747,-1.88024 -3.60624,0.21016 -6.75738,-1.70579 -9.62342,-3.50314 8.8e-4,0.47174 -10e-4,0.96005 5.8e-4,1.42654 z m -41.61199,-14.10899 c 2.12817,0.87194 1.79433,0.55464 5.11935,2.18559 3.77549,0.73226 7.68502,1.79664 11.99423,2.07109 5.06198,3.81039 11.48771,3.35776 16.68842,5.61332 3.64316,2.55338 6.30637,4.59715 9.29291,3.55347 -2.66533,-0.0396 -3.55172,-0.30778 -6.49863,-2.05191 -5.87518,-4.48987 -13.34974,-3.56783 -19.65505,-7.4478 -4.81363,-0.9719 -10.78777,-2.51541 -14.80416,-3.83671 0.77619,1.64213 -1.23669,-1.92969 -2.13707,-0.087 z m -4.11376,-24.78161 c 0.47235,1.99747 3.01876,5.13845 3.25088,6.01565 0.93078,0.59428 1.114,3.85537 0.97098,5.07882 0.46108,2.93138 -0.6749,5.70303 -1.54618,8.24291 0.28447,1.17981 -0.69543,1.7498 -0.0645,4.25773 1.95175,1.96695 1.16226,0.19959 0.50576,-1.66504 -0.71494,-2.56857 0.0196,-0.20745 0.78912,-3.38912 2.05888,-3.94056 1.06642,-8.94511 0.24302,-12.73063 -0.63401,-1.27939 -2.20937,-3.3668 -2.49721,-5.80912 -0.55016,-6.9e-4 -1.10463,0.001 -1.65191,-0.001 z m -2.64173,-16.65331 c 2.41927,-1.45878 5.1087,-3.71539 7.673,-4.206562 2.34313,0.459552 1.56314,-1.975 2.23831,-0.18074 0.94033,0.921302 -2.29886,1.327462 -2.92218,3.669542 -1.49708,3.2695 -3.20175,5.76684 -3.75436,8.72816 -0.15545,3.14238 -1.16797,7.20478 -0.11097,10.75491 1.71448,0.42849 -0.29642,-4.55896 0.90153,-6.67205 -0.93917,-4.3702 1.63928,-7.25623 2.79726,-10.57587 1.29364,-2.42817 2.70988,-4.06397 3.28623,-4.86583 1.0264,-2.103132 -1.44132,-2.671222 -2.85939,-0.735862 -1.69927,0.715062 -7.26133,2.178132 -7.29882,3.960302 l 0.05,0.12514 z m -21.62299,2.86386 c 2.64072,0.58889 5.52385,-0.62326 9.38655,-0.83864 3.22319,0.16425 4.55195,-2.67265 7.557,-2.46633 2.17389,-1.44347 2.4564,0.512 4.50192,0.72792 -0.6634,-0.85714 0.83452,-0.40526 -0.89103,-0.78973 -2.58166,-0.92477 -3.84565,-0.52472 -6.29792,0.13203 -3.1616,2.19219 -7.45727,2.36921 -11.56626,2.78568 0.30244,1.24867 -0.62582,-1.42871 -2.69026,0.44907 z m -38.7769,-2.58585 c 4.19076,0.51024 7.89096,1.45375 12.40253,2.82444 5.78017,1.16746 7.2528,1.3508 10.86798,1.51629 3.07574,1.03658 6.24718,-1.65864 6.62375,-1.13237 1.88248,-1.06988 4.77169,-3.54982 5.62829,-1.36137 5.03476,0.96531 1.70305,0.83343 -0.64877,-0.90502 -1.77812,-0.18181 -6.71415,0.65193 -5.97202,2.73261 -0.98178,-2.23199 -5.50445,1.89491 -7.15973,-0.032 -1.4556,0.66204 -4.37222,-1.24223 -8.10191,-1.18337 -3.65836,-1.32414 -8.44651,-1.39552 -11.33807,-2.53777 l -2.30238,-0.30367 v 0.38381 z M 118.44874,59.637293 c 2.39475,3.581861 6.66869,6.373201 6.85028,10.605473 1.76454,4.69964 6.10194,7.999 8.85487,11.940474 2.29069,2.186716 5.44132,3.965443 6.63666,6.054578 1.76428,2.63446 3.38252,5.30455 6.20137,6.94368 2.555,2.20154 5.33865,5.550542 8.46987,7.348422 1.53817,0.92338 3.41219,1.71091 5.06117,1.58056 -3.23314,-1.11625 -4.45455,-1.27213 -7.17127,-3.36456 -3.35332,-3.169552 -6.90537,-5.932052 -9.50002,-8.846562 -3.12936,-4.80594 -6.79818,-7.953771 -10.72867,-12.501809 -3.26313,-3.429759 -6.93601,-8.331171 -8.42438,-12.093826 -1.78167,-2.67465 -4.17449,-5.966641 -6.24988,-7.66643 z" /></g></svg>
