<?xml version="1.0" encoding="UTF-8" standalone="no"?>
<!-- Created with Inkscape (http://www.inkscape.org/) -->

<svg
   width="1122.5197"
   height="793.70081"
   viewBox="0 0 296.99998 210"
   version="1.1"
   id="svg31074"
   xml:space="preserve"
   xmlns="http://www.w3.org/2000/svg"
   xmlns:svg="http://www.w3.org/2000/svg"><defs
     id="defs31071" /><g
     id="layer1"><circle
       id="path37080"
       style="fill:#000000;stroke:#000000;stroke-width:0.264583"
       cx="124.57396"
       cy="146.07642"
       r="0" /><path
       id="path37197"
       style="fill:#000000;fill-opacity:0.99;stroke:#000000;stroke-width:0"
       d="m 122.15753,161.48553 c -6.27746,-2.10349 7.9076,-7.70681 3.77048,-13.69981 -2.51988,-8.40154 -2.00419,-21.70039 -11.61496,-24.84988 -6.05314,-0.84912 -12.49474,-1.86785 -18.493935,-1.00711 -10.424401,7.06017 -22.187257,12.00697 -32.113029,19.76581 -6.584212,5.32055 -11.284508,13.94907 -19.628567,16.37902 -4.203255,-3.89847 7.665027,-11.02889 9.738923,-16.01243 6.082493,-8.05023 14.997653,-14.45582 19.319584,-23.43492 2.462528,-8.68613 2.847623,-18.998397 -1.509358,-27.097502 -9.818057,-6.327134 -21.958763,-3.762824 -32.853471,-5.729443 -8.744251,-2.773328 -2.390886,-15.171163 0.164259,-21.021413 8.289525,-2.617766 6.216682,-13.800688 9.605259,-17.333253 5.594037,6.077304 11.8399,9.604221 19.570853,10.983541 10.249712,1.451433 20.442541,3.045781 30.707197,4.447839 10.692775,0.294831 21.266935,0.817944 31.716745,2.862205 18.34648,1.411192 35.60345,-7.544197 54.04866,-6.45759 11.24351,-1.31761 22.90896,-4.119198 33.95748,0.06602 15.73689,4.661096 23.26565,20.97378 29.52296,34.801521 3.81314,7.579255 5.57743,17.051575 13.7535,21.176035 4.34892,8.10915 7.85907,17.31016 9.72052,26.25444 -2.0529,4.19757 3.71086,16.11424 -3.20752,14.73012 -4.32036,-7.66271 -4.9079,-17.31485 -9.24569,-24.58294 -5.1455,-8.675 -18.21931,-4.35262 -26.7307,-7.42578 -5.40705,-2.83187 -10.26874,-0.82735 -6.58687,4.49089 -0.14512,10.91921 -12.00455,17.13571 -18.55917,24.62983 -4.63874,5.71758 -20.44543,-1.23647 -7.92825,-3.69765 9.14748,-0.94115 18.7544,-15.71851 7.51393,-21.20619 -5.88234,-3.77434 -11.21841,-10.01189 -19.16015,-7.42085 -17.72803,3.14923 -35.81717,-0.0661 -53.65565,1.80183 -0.32319,12.00245 0.30774,24.55682 -4.09134,35.86683 -1.39276,2.37263 -5.20531,3.5783 -7.73169,2.72083 z m -1.06275,-0.0895 c -7.046,-0.70608 5.19081,-4.8541 4.39675,-8.50886 1.65181,-8.74722 -3.39789,-16.89949 -5.19588,-25.25655 -4.30515,-7.3286 -15.79189,-5.28789 -23.243945,-5.65639 -9.416063,4.87397 -18.04431,11.23439 -27.722067,15.67954 -7.755805,5.68393 -13.877631,12.91278 -20.68485,19.29017 -5.945124,4.38596 -9.63567,-1.91424 -2.86938,-4.9335 7.489204,-11.36229 17.660062,-20.6182 26.306148,-30.97392 3.995973,-9.26198 3.698481,-20.42558 -0.562872,-29.491537 C 63.559993,87.076975 54.289576,86.68191 45.410418,86.969837 37.613904,87.743188 29.92628,83.036547 35.489565,75.135879 33.717111,62.987991 50.60892,59.895014 46.814305,46.816533 c 3.653047,-1.109122 10.366415,11.525856 18.09886,10.391071 9.270214,3.100314 19.391215,2.262923 28.720518,5.024255 10.075057,2.074095 20.874297,-1.375426 30.485497,2.626302 12.4868,1.976146 25.11587,-0.09042 37.1799,-3.478504 11.82673,-3.682809 24.42438,-0.541019 36.2242,-4.344884 10.29152,-1.399884 21.34916,0.629513 30.18144,6.076839 14.63038,11.463658 19.64236,30.182399 27.46286,46.103008 7.78672,5.48239 11.64648,13.50167 13.9805,22.91856 4.54181,6.93272 0.60494,14.63224 3.34653,21.48933 -5.1227,11.07505 -8.43491,-8.27932 -10.06963,-12.94457 -0.49404,-12.17598 -12.25804,-15.94541 -22.64746,-14.90284 -5.04371,0.44522 -20.43988,-7.08881 -13.48021,3.29321 -0.13509,10.02325 -10.81801,15.9507 -16.82091,22.83509 -3.59165,8.57651 -25.03561,0.97904 -10.25058,-2.56964 8.70695,-0.30302 18.65375,-15.33619 7.64892,-20.63755 -7.04523,-6.86157 -15.93907,-9.99612 -25.44846,-6.32541 -12.76082,1.63795 -25.54937,-0.90388 -38.35176,0.27483 -2.59167,0.78603 -8.20929,-1.14107 -8.84798,1.39603 1.27649,9.73861 -1.19196,19.36782 -2.00558,29.0507 -0.30274,5.83217 -5.02619,11.00221 -11.12618,8.30368 z m 2.96924,0.96213 c -7.64941,0.003 -5.71965,-3.73317 -0.59302,-6.59845 5.78118,-8.69185 -2.05301,-19.151 -3.48328,-28.31217 -5.51185,-6.18991 -17.87684,-6.83687 -25.634548,-3.93007 -8.464833,5.77878 -17.426127,10.79792 -26.523245,15.35155 -6.626199,6.02292 -12.448088,11.79502 -18.256827,17.8439 -4.873046,5.90505 -12.628348,-0.97504 -4.301897,-4.40911 4.382314,-7.95044 11.522299,-14.06038 16.9844,-21.04294 7.103009,-6.07431 13.413346,-13.94385 12.367498,-24.01548 C 75.832744,96.60075 70.73094,87.873582 59.465992,87.463184 50.353242,85.649648 40.088989,89.850049 32.43762,83.508886 c 4.370962,-6.124332 0.34312,-15.252758 6.943222,-20.308856 9.205809,-2.259311 4.841134,-13.965266 8.334039,-18.37546 4.492397,7.396305 12.319378,11.723605 20.502417,13.35477 8.8964,1.136041 17.987499,2.178613 26.994916,3.745211 8.109806,3.071048 17.513056,-0.925296 25.150866,1.283078 7.7049,2.830039 17.30308,3.686932 25.58479,1.291389 10.00791,-2.211221 19.93652,-5.00757 30.08734,-6.056355 10.81496,3.744077 21.65755,-4.881819 32.50509,-1.629187 8.20924,0.673687 17.30722,2.747573 23.22312,9.120915 8.58741,8.191881 13.25847,19.559142 17.94464,30.258048 2.91582,7.367501 5.56653,16.586901 13.46187,19.127701 3.5266,8.6034 7.17655,17.51951 9.27872,26.50269 -3.96753,4.96082 4.63071,15.06854 -3.60608,16.21547 -5.66142,-7.0186 -5.45492,-16.43763 -9.04307,-24.45036 -3.65584,-9.96532 -15.95383,-6.35479 -24.10486,-7.63546 -3.79911,-1.47106 -15.90207,-5.26548 -9.22508,2.38191 1.05163,9.14109 -7.95887,16.08289 -14.37836,21.27526 -4.47509,6.44571 -13.61306,9.98806 -19.64105,3.1182 2.60911,-6.3413 10.14748,-1.01727 12.91324,-6.31103 5.4737,-4.36304 10.44859,-13.28983 1.65063,-17.27013 -6.01465,-4.68515 -13.42527,-11.00171 -21.8188,-6.92616 -7.94883,0.68812 -15.91462,2.81158 -24.01369,0.22654 -8.40909,1.17561 -20.97453,-1.95289 -26.55238,2.64091 1.82152,8.62862 -1.99861,17.17516 -1.61555,25.98049 -0.47851,4.9458 -2.54829,12.64154 -8.94958,11.2897 z m 68.32201,-41.36068 c -3.99577,1.21252 -7.75036,1.32008 -11.46637,2.68454 -3.39869,-2.06742 -4.16934,0.26363 -3.31774,2.15029 1.32394,0.10813 2.86948,-2.12792 4.24363,-1.76756 3.53211,-0.75148 5.66855,-1.70911 9.49895,-1.93479 1.73598,0.51423 1.12112,-0.48699 1.04153,-1.13248 z m 18.90016,12.71991 c -1.54432,-1.40744 -2.62917,-3.50718 -5.60341,-5.18539 -2.08702,-2.07329 -4.90398,-3.31981 -7.37306,-4.8985 -1.13558,-1.06902 -4.47678,-3.20124 -5.28587,-2.28534 1.06537,1.3106 4.12782,2.70804 5.27926,3.77836 2.31323,1.55075 4.59688,3.73616 7.37832,5.07781 2.08881,1.84546 4.0835,4.53589 5.60476,3.51306 z m -2.08211,20.5846 c -1.77935,0.45077 -1.43652,1.3659 -3.84831,2.29994 -1.94943,-0.40229 -3.70479,-1.32433 -5.16615,0.26607 -1.39615,0.15113 -4.63527,0.32457 -4.74355,-1.39407 -0.87444,-0.781 -0.7304,-0.0874 -3.07859,-2.05205 -0.52059,-1.96704 0.95469,-3.14782 3.08459,-3.42611 -0.0775,-0.60594 3.06927,-2.74327 4.89045,-1.51672 2.94207,1.50941 3.71804,-1.8698 5.22474,-2.80376 1.6667,-1.85533 3.73141,-3.81512 4.6124,-5.22651 0.25138,-0.56678 0.898,-1.97173 0.4861,-1.52985 -0.14446,-0.5596 2.9676,-3.84921 0.75963,-4.8499 0.43892,1.1463 -1.80663,0.0862 -0.1081,2.13785 -0.70462,2.16075 -0.55553,1.93895 -0.9939,2.7456 -0.95585,1.09737 -0.63213,-0.0356 -1.63645,1.51244 -0.92423,1.46251 -4.3418,3.68636 -5.3053,6.1222 -0.91531,2.45144 -4.37904,0.47679 -6.83904,1.09607 -2.0784,1.2277 -1.29213,1.23127 -3.20952,2.51881 -2.62533,1.34314 -1.19682,4.4551 0.0574,6.01552 0.0311,-0.1186 0.76962,1.47159 3.56285,1.02463 3.40121,0.25422 4.82145,0.41749 6.52018,0.43795 1.3888,-0.57197 5.274,-1.20104 5.13787,-1.87435 0.74482,-0.25079 1.51805,-0.0567 0.59267,-1.50376 z m 14.83878,-28.86664 c 3.8027,-0.45947 -0.38692,0.0251 2.74958,2.30593 0.62251,1.51197 0.0613,1.5094 0.88393,2.74137 -0.60822,1.407 0.48146,1.59839 -0.66314,3.12148 -0.0294,0.69375 -1.20226,1.27146 -1.77802,2.76988 -1.43479,2.04028 -1.88003,4.81581 -4.16111,5.67548 -1.38671,0.93207 -3.44843,4.37132 -5.25817,5.75564 -1.57682,1.58637 -4.39035,1.5368 -5.81475,4.83838 -3.16932,0.97081 -2.15011,3.04909 -0.97216,2.71183 0.91863,-1.24634 4.11339,-2.97354 5.32291,-3.92514 1.48168,-1.20075 4.03896,-2.74932 5.57989,-4.57638 1.87507,-2.35156 3.10628,-3.1957 5.22982,-5.63212 1.34746,-2.25005 2.19089,-3.97358 2.65065,-4.46866 1.54241,-2.56091 1.45606,-1.59353 1.94016,-4.85225 -0.59536,-1.66156 -0.32099,-3.16741 -1.73523,-3.77776 -0.51284,-2.66913 -2.50692,-4.47307 -1.91965,-1.70638 1.3056,-2.16068 0.03,-3.4646 -2.05471,-0.9813 z m 38.6503,17.83852 c -1.19089,-3.62221 -2.16492,-4.86819 -2.69156,-8.30631 -0.96474,-2.95153 -2.90372,-6.72697 -5.61185,-6.63028 -2.46561,-1.82941 -4.26084,-1.43122 -8.0848,-1.9742 -3.11632,0.3812 -6.64093,0.40945 -9.22558,0.21462 -3.27094,-0.66817 -3.80265,-1.37805 -6.28573,-1.42267 -1.90572,-0.0319 -6.59508,-3.44997 -5.65623,-0.13432 2.99585,0.33653 6.25377,0.64953 8.33675,2.01238 3.59404,-0.23376 5.21103,1.47381 8.53427,0.9775 3.06392,0.8828 6.30394,0.6054 9.42316,0.68335 2.16274,0.63407 6.18257,1.80526 6.69507,5.06131 1.65723,3.112 2.30805,6.55653 3.41925,9.74833 0.38126,-0.0774 0.76655,-0.15196 1.14725,-0.22971 z m 10.0083,6.49375 c 2.95235,1.86717 0.34089,1.07107 1.49765,3.81034 -1.81896,1.97509 -2.9464,2.19322 -2.92571,4.10576 0.28226,2.27328 -3.83448,0.77452 -3.80124,-1.32935 -2.02502,-2.42066 -3.73259,-5.21801 -3.86272,-8.53112 0.23833,-3.04594 -2.13969,-6.5087 -1.32312,-1.81698 0.58245,2.4226 0.92089,4.66349 2.51825,7.39263 0.0536,2.20648 2.8484,3.17619 2.94146,5.13992 1.81644,2.46348 6.00143,-1.92427 5.52886,-1.07091 0.634,-1.00208 1.22209,-2.75163 1.82938,-4.42535 0.51404,-2.46264 0.43733,-0.57601 -0.66148,-4.5803 -0.58044,0.43504 -1.16086,0.87131 -1.74133,1.30536 z m -15.56467,-38.53951 c 1.75683,3.15304 3.29276,1.58574 6.14423,2.65642 1.10349,0.81601 0.20915,2.29024 2.11371,4.61183 0.54313,0.72279 1.4052,2.29725 1.19864,3.65786 0.0525,2.93452 1.27082,3.50094 1.83888,5.75223 1.04235,2.69059 1.07312,5.01785 2.99381,8.11445 1.33932,1.21496 1.59015,3.01075 1.32308,4.42695 1.0577,2.91493 -1.99755,5.56522 -1.65214,5.18726 -0.29996,0.80753 2.17623,3.90249 1.63563,3.6728 2.98905,-2.08406 0.41402,-0.78206 0.30443,-2.76996 -0.45977,-1.32466 -0.75703,-0.54034 0.1742,-3.83056 0.55012,-2.08107 0.66024,-4.09274 -0.0436,-5.8005 -0.0625,-3.02555 -2.03494,-4.88551 -3.0689,-7.81785 -0.54417,-1.57607 -0.91924,-3.6707 -1.21716,-4.77574 -0.21244,-1.97892 -1.44103,-4.62691 -1.43873,-4.6814 -0.2772,-2.06589 -1.16816,-4.41036 -2.82294,-5.17393 0.16806,-0.58704 -1.7604,-0.99327 -3.31979,-2.24833 -0.61492,1.35843 -1.11956,-4.01752 -4.16332,-0.98153 z m -19.4428,-39.12403 c 2.48172,3.60018 1.68075,2.336975 4.28919,7.489357 1.67289,2.898897 3.57455,5.561803 4.12877,7.399665 1.03097,2.529274 1.73098,4.439103 3.23282,7.310401 1.31432,1.249312 0.29187,1.272847 1.86034,3.7997 -0.61484,2.496447 2.1752,4.245647 2.70048,5.867427 -0.44723,1.99933 1.74667,4.6866 2.91797,6.62082 2.11982,0.85993 -0.4082,-3.57023 -1.77482,-5.31806 -0.88313,-1.7136 -0.84143,-3.49685 -1.67939,-5.395548 -0.68678,-2.283118 -1.33609,-4.785783 -1.71489,-5.535276 -1.79882,-3.123044 -2.35245,-6.186279 -4.13231,-9.143825 -0.5645,-1.53361 -2.22301,-3.652449 -3.35435,-5.589527 -3.3004,-4.87885 -3.14442,-4.487569 -4.30921,-6.883709 -0.50342,-1.805377 -0.94046,-1.276385 -2.1646,-0.621425 z M 206.72734,55.946092 c 2.75038,1.368174 0.89368,-0.160136 6.04554,0.476435 3.61437,0.0575 2.60281,1.815754 5.18767,2.283275 2.26249,-0.297683 1.67882,0.421796 4.87557,0.566518 2.81552,0.647568 5.33372,3.544081 7.88117,5.266957 2.37618,1.241132 3.59193,2.776141 5.25581,4.615188 1.36851,4.505404 4.2837,2.137519 0.63832,-0.414483 -1.96542,-2.343086 -4.88484,-3.792659 -6.92984,-5.496025 -2.79662,-2.088537 -6.15577,-4.34725 -8.71609,-5.786586 -1.07627,-0.297929 -2.94243,-1.010796 -4.86444,-0.998064 -0.28243,-0.01883 -4.20685,-0.290512 -5.83416,-0.398505 -1.1911,-0.139274 -1.52861,-3.691649 -3.53955,-0.11471 z m -32.95484,2.335242 c 3.54449,-1.420495 5.70587,2.104937 10.65991,0.843534 4.40727,-0.953863 9.16087,-1.612141 13.40913,-2.947297 3.43394,-1.035132 7.80202,-0.62711 10.7641,-0.271878 -0.27738,-1.112713 -7.50916,-0.60389 -10.51012,-0.847923 -6.27189,-1.01024 -12.16197,2.737532 -18.50953,1.948166 -1.14051,0.706851 -6.81102,-1.362921 -5.81349,1.275398 z m -53.28932,4.708731 c 5.20864,0.693584 -0.29508,-2.465467 3.47492,1.318636 5.30092,1.334132 9.32182,1.396502 15.82415,1.337664 4.0331,-0.19254 6.4584,-2.175065 10.01906,-2.391706 4.02471,-1.011838 8.70268,-1.585727 12.04298,-2.918169 2.8372,-0.849754 5.57645,-1.111742 7.87224,-1.151218 3.67731,-1.372296 6.93102,-1.782461 0.60285,-1.293479 -2.05604,-0.296982 -3.97945,0.870445 -6.28584,0.597821 -2.65523,0.873329 -5.18369,0.504864 -8.30227,1.24778 -6.22286,1.145559 -9.44422,2.33094 -15.18092,3.533484 -5.93666,0.366916 -11.60985,0.403717 -17.20471,-1.339128 -0.0983,5.691653 -0.92487,-5.514004 -2.86246,1.058315 z M 66.540223,56.867649 c 2.47123,2.456371 3.525245,1.097156 5.472898,1.628788 2.496058,-0.09894 3.945258,-0.364511 5.717178,0.505098 1.260147,-0.45833 3.900881,1.207622 6.199118,0.839578 3.327919,-0.08983 5.359271,1.418395 8.209955,1.323557 2.162379,0.485421 4.870704,0.11389 6.054299,0.962443 1.48409,0.124206 3.169209,0.847657 5.161339,0.681816 4.20531,0.481224 5.16799,-0.652426 8.80303,-0.707554 2.55875,-0.782984 7.1821,0.298526 8.20581,-0.339074 -3.28098,-0.775809 -7.51307,0.495458 -10.50101,-0.869688 -1.9334,-0.319522 -5.43062,0.311599 -7.69197,0.0103 -1.71493,0.865608 -3.588328,0.448868 -4.989701,0.364837 -3.843634,-0.0319 -6.944111,-1.470417 -10.334943,-2.128131 -3.657642,0.02941 -4.805592,-1.422707 -8.089474,-1.384949 -1.823212,-0.519117 -3.807547,0.179015 -5.867056,-1.025416 -3.819778,0.557699 -2.827797,-1.428515 -6.349473,0.138493 z m -21.164626,2.376837 c -1.005319,-2.876415 0.466584,-2.000493 0.187391,-5.614075 -0.316669,-2.505966 0.568515,-4.230624 0.495033,-6.614009 -1.384216,-2.544693 1.043561,-1.762919 -2.429407,-2.566109 3.148663,-1.769187 0.5985,2.980317 2.270918,-1.125299 -4.921339,-0.136917 1.92898,2.265971 -0.17744,0.460433 -0.715253,1.078577 1.692791,-0.708885 2.813381,1.122717 0.321934,1.250474 0.976394,2.478339 2.352672,3.36359 -0.147301,-1.092364 0.289743,1.107286 1.451425,0.991489 1.80395,1.642628 2.756776,3.883284 3.105269,3.497704 1.378905,1.741882 3.301381,1.336921 3.378131,2.429772 1.759882,-0.0562 1.895496,1.471628 3.65129,0.543962 1.255763,0.165642 3.600191,1.811054 3.817548,0.11884 -1.674177,-0.214153 -3.003137,-0.678368 -4.135289,-1.249786 -0.204076,0.196202 -3.244982,-1.149868 -2.483144,-0.844983 -0.775848,0.257556 -1.360818,-0.590349 -2.678803,-1.580806 -1.75329,0.09173 -1.757791,-2.136326 -3.697433,-2.833431 -1.126955,-1.647074 -1.906883,-1.109105 -2.375865,-2.1009 -0.520248,-0.64398 -1.51692,-1.203143 -2.75613,-2.498866 -1.52825,-2.310005 -3.919001,-0.946433 -3.093421,-1.713362 1.740532,3.732295 -1.082588,-1.543889 -0.823206,1.105435 -0.194459,0.810543 1.872027,-0.79496 -0.711261,0.732229 0.470117,0.143764 -0.154639,2.567953 1.051279,5.072012 0.09324,2.400035 0.0025,4.941506 -0.286977,7.227628 2.277721,0.799658 -3.103862,-0.414766 1.074039,2.075815 z M 34.940105,78.237838 c -0.879716,-2.161659 1.118184,-3.300425 0.485886,-6.774013 -0.02709,-1.857981 -1.657721,-3.881667 0.696894,-4.83675 0.05897,-0.92646 1.816658,-3.100932 3.113794,-4.163983 1.11778,-1.245685 1.908524,-0.500454 3.388505,-2.078601 -1.418042,-0.04673 1.894721,-0.350893 1.538975,-2.032585 -0.605604,-0.784587 -0.664199,0.05414 -2.101902,0.373785 -0.484265,1.391909 -1.170213,-0.01255 -2.393239,2.55819 -0.908116,0.716981 -2.858095,2.226321 -3.456043,3.980452 -1.115943,0.550355 -1.814544,2.577899 -1.782355,4.546148 0.540473,1.821378 0.410562,4.340228 -0.107272,5.98759 -1.105408,0.84057 -3.363267,0.915707 0.616757,2.439767 z m 17.530542,8.377322 c -3.800991,1.27534 -8.708024,0.579298 -12.632478,1.009989 -2.66323,0.801989 -1.55675,-2.366764 -3.829169,-2.062229 0.787022,0.02288 -0.822933,-0.892513 -2.229403,-0.788699 -0.803878,0.201285 -3.0929,-1.214405 -1.255405,-1.730623 -0.04556,-1.922185 -1.355059,-0.209937 -0.621152,-1.614737 1.519057,-0.467307 0.138425,-1.290404 0.959914,-2.417548 0.03246,0.778399 1.068956,-0.624694 0.800084,-1.007202 0.798547,-2.004679 -1.354641,0.124491 -1.273712,-0.235053 0.13657,0.557082 -0.534274,1.035452 -1.0872,2.158756 -0.39389,0.164036 -0.783563,2.899669 0.370361,1.343777 -0.641564,0.869031 -1.094647,1.360699 0.02492,2.176401 0.723786,1.478608 2.53079,1.905979 3.648956,2.977015 0.711139,0.100396 0.361955,0.02496 1.715325,1.214792 1.908016,0.890201 3.973121,0.433567 6.346016,0.294495 2.515838,-1.573435 9.566489,1.430668 9.062943,-1.319134 z m 21.85076,26.15583 c -0.751901,-3.00634 -0.202766,-2.82897 0.12055,-7.05595 -0.301774,-3.02868 -0.663425,-6.466182 -1.42834,-9.3568 -1.061106,-1.86573 -1.102363,-3.609183 -2.07857,-4.601797 -0.200588,-1.100214 -2.986259,-1.421953 -5.553797,-1.688031 -3.161157,-0.978585 -5.431234,-2.545575 -8.477361,-2.63629 -1.183338,-0.560242 -6.136447,-1.400781 -4.147656,0.164166 2.586966,1.016582 6.086666,1.403313 7.666231,1.979047 2.831377,1.201936 5.832504,1.496994 8.415708,2.981515 0.04776,0.393129 2.076698,1.095703 2.575919,3.321201 0.859576,2.069243 1.002054,5.717299 1.440538,8.601749 0.07919,-0.0313 -0.119174,5.80986 0.801097,6.05589 -0.978813,-0.19149 -1.976451,3.41988 0.665681,2.2353 z M 59.175782,133.9669 c 2.97263,-0.38902 2.509403,-4.09302 3.648334,-4.27281 2.253385,-1.41901 4.810318,-4.83467 5.989383,-6.0205 3.687765,-0.47949 3.474993,-5.88276 4.243449,-8.78227 -0.719543,-1.38094 0.756057,-0.31841 1.27836,-0.46044 -1.79334,-2.89675 0.570476,-0.36496 -2.398196,1.76128 -0.731618,2.89995 -2.138347,5.78547 -4.465077,7.31378 -0.532699,2.0206 -5.665009,6.07605 -5.069594,5.76374 -1.534459,2.09623 -3.397784,2.31452 -3.226659,4.69722 z m -2.030691,16.58077 c -5.402363,0.0459 -3.108965,4.65858 -4.280614,1.95089 -0.0306,3.90894 3.896225,0.86983 -0.180478,1.18018 -0.05267,2.06338 -4.085584,3.6212 -5.224372,5.12037 -1.477439,1.12067 -3.375208,0.51742 -4.716553,0.79437 -0.905594,-0.7238 -2.85329,-0.55114 -1.790525,-2.11928 -1.566944,-1.84888 2.712961,-3.60831 1.787978,-4.41316 1.066106,0.1348 3.039985,-0.62248 3.272136,-2.30382 1.221785,-1.70501 1.371806,-4.07578 3.408564,-5.37791 0.67605,-0.4554 2.556467,-4.18331 2.604817,-3.3082 2.04338,-2.18227 3.0157,-3.14581 5.030925,-5.28303 1.755069,-0.10908 3.062878,-8.76183 1.814073,-4.75336 -1.260633,2.95238 -3.112116,5.34257 -5.387525,7.55231 -1.351677,1.59588 -2.223455,2.53563 -2.956838,3.61187 -1.531908,1.50722 -2.538155,2.40995 -3.531856,4.79582 -0.658471,1.3472 -2.067666,2.87669 -2.282185,2.9583 -2.546826,1.72968 -0.212653,1.64337 -3.117723,3.02429 -1.495454,1.61591 -1.057944,3.74913 -1.133075,4.6167 1.175281,1.81181 2.760577,2.04724 4.205856,2.73636 1.203007,0.34412 7.402377,-2.40447 6.420234,-2.30123 2.448102,-2.38977 5.049403,-6.17161 2.493951,-6.91331 2.392871,1.60419 1.270934,2.93816 1.390748,-0.25209 -1.61585,3.89823 3.124219,0.65401 2.172462,-1.31607 z m 40.292983,-28.12542 c -3.77453,1.15675 -4.018979,2.74329 -4.670666,2.48812 -0.778153,0.53527 -2.880863,2.15325 -4.388194,3.05914 -1.484609,1.17258 -4.10097,2.36279 -5.985708,3.39795 -1.853734,1.61535 -6.095995,3.6502 -9.312296,5.3067 -3.53136,0.71622 -6.7124,3.84162 -9.087525,5.89694 -1.778465,0.9243 -4.285755,4.98915 -6.013799,7.34048 0.270177,0.65912 -3.45521,5.3371 -1.070102,2.69985 2.548917,-2.16568 3.887965,-4.87191 6.593306,-7.38205 0.765873,-2.3745 3.135201,-1.25014 5.108794,-4.29488 4.414906,-2.82535 9.874292,-3.89039 13.952903,-7.25765 1.636971,-0.71537 3.884149,-2.53078 5.890733,-3.61861 1.386083,-1.4092 4.434001,-2.91137 5.255723,-3.98196 -0.556572,-0.76856 3.990067,-1.12239 3.752861,-3.60087 l -0.0261,-0.0522 z m 27.772806,22.9191 c -1.99471,-2.54066 -0.96698,-0.88717 -1.80474,-4.0322 -0.71072,-0.86979 -0.64822,-2.28835 -0.95226,-2.1216 -0.30453,-3.24213 -1.49454,-2.54047 -0.69278,-5.35732 -0.94518,-2.86582 -0.37196,-2.67161 -1.81276,-6.02336 -1.32646,-1.31825 -1.72584,-4.09729 -5.52183,-3.83417 -1.65757,-0.43924 -6.10756,-0.7835 -7.83377,-1.19935 -2.10938,-0.45609 -8.142786,-1.40458 -8.041146,-0.49993 -1.680652,1.52224 2.271556,0.47101 4.599866,0.51645 2.72455,0.455 5.35267,1.2041 8.20184,1.85951 2.47797,-0.46233 4.48176,0.92262 5.43501,1.85643 1.51018,0.85101 1.47727,2.88921 2.7871,5.34572 -1.00795,-3.87555 1.79869,4.02892 1.36426,4.50838 0.91147,1.60235 1.00078,3.52315 1.3416,4.14374 0.2239,1.74829 0.0851,3.40403 0.90998,3.21408 1.38619,0.59515 -0.97685,2.66387 2.01963,1.62362 z m 11.39978,-22.26834 c -2.37214,0.71209 -1.60433,4.04081 -1.10525,6.59065 0.42476,1.17782 -0.0597,2.80343 0.39384,4.49301 -0.62562,2.20913 -1.50737,2.63575 -0.92749,4.15942 -0.80544,2.14724 -1.08974,1.87482 -1.23055,4.15329 0.0851,2.33894 -0.0936,4.67494 -0.099,7.11638 0.51015,-2.15422 -0.62255,4.50663 -0.93261,5.65435 0.86241,0.16699 -2.87178,4.83255 -1.41957,5.5352 -0.70401,-0.0609 -0.7758,0.87749 -2.00694,1.09516 -1.84611,1.37505 -1.72131,-0.14695 -3.64832,1.69808 -0.007,-0.10153 -4.76049,-1.71651 -2.03035,-0.26579 -0.67248,-1.89077 -5.54356,-1.19294 -3.36237,-0.68894 -1.36088,-1.4715 -1.61996,-0.23948 -2.92887,-1.19034 0.75403,-0.70809 -0.0335,-1.69867 0.6804,-2.26333 2.7349,-1.14924 0.20965,-0.4243 2.30254,-1.80898 1.63531,0.23802 1.57709,-2.45707 1.29975,-0.57891 1.37751,-0.42933 3.08663,-1.08811 2.2749,-1.53796 0.96257,-1.63061 0.0532,-1.72277 1.18405,-1.9038 0.33163,-1.01122 -0.53312,-1.69338 0.3255,-2.928 -1.01387,-0.97177 0.10602,-0.86748 0.22966,-2.67605 0.0418,-0.95747 -0.1949,-2.7688 -1.32792,-1.23449 -0.27965,-0.75386 -0.0499,1.96256 0.19693,1.41415 -0.0968,1.79822 0.5355,1.23322 -0.17257,2.20384 -1.03218,4.05428 0.30108,1.38345 -0.84337,3.00787 0.60425,-0.72357 -0.88276,2.35824 -0.78431,1.99891 0.96294,-0.58233 -3.0976,0.15794 -1.63796,0.12139 1.33081,-0.38906 -4.33977,1.99918 -1.56347,1.40307 -2.52129,1.0306 -0.90144,-0.48025 -2.67498,2.4157 -0.72814,1.46561 0.5801,3.33632 0.23819,2.88755 1.68438,1.89018 1.08848,1.62829 2.57386,1.88175 2.37878,2.08903 1.64567,-0.65345 3.13386,0.47572 -0.33346,0.51965 2.05321,-0.0736 3.93461,0.33114 1.25855,-0.38348 1.08803,-0.16764 2.85747,-0.59806 -0.19322,0.61697 1.45782,-0.94018 2.49576,-1.85086 -0.70048,2.83243 5.16538,-10.73831 2.3889,-5.1 0.46686,-1.92899 1.1784,-2.91023 1.23882,-7.45053 -0.72182,3.80244 1.1045,-3.2929 0.29513,-5.4503 -0.18948,-2.89179 0.28346,-1.89635 -0.2764,-4.03731 -0.16943,-1.4512 0.76954,-2.39732 0.21867,-3.46946 0.83655,-1.80507 -0.11946,-4.0995 0.74581,-6.06391 -1.0318,-1.22301 0.48615,-3.58451 0.0841,-5.79224 -1.39555,-4.59761 -0.56611,3.0251 -0.12196,-1.74878 z m 42.65431,0.73027 c -6.14727,0.25755 -12.05157,1.12653 -17.75049,-1.31034 -3.55515,0.47663 -6.44897,-0.26338 -10.33938,0.71478 -4.48625,0.20948 -9.02796,-0.0887 -13.75776,0.008 -2.69675,1.3798 4.99632,1.09424 7.33323,0.66691 3.35304,-0.14107 6.48756,0.87471 9.69328,-0.2894 4.90902,-0.1066 9.52528,0.33878 14.34664,1.31105 2.66668,-0.41278 8.91597,0.96572 10.47448,-1.10077 z" /></g></svg>
